<svg width="40" height="40" viewBox="0 0 40 40" fill="none" xmlns="http://www.w3.org/2000/svg">
<path d="M19.6923 5C15.6146 5 15.1064 5.01969 13.5106 5.0872C11.9082 5.16596 10.8243 5.41443 9.86794 5.78572C8.867 6.1636 7.96051 6.75523 7.21167 7.51938C6.44539 8.26647 5.85343 9.17346 5.47801 10.1756C5.10672 11.132 4.85825 12.2159 4.77949 13.8183C4.70729 15.4151 4.69229 15.9223 4.69229 20C4.69229 24.0777 4.71198 24.5859 4.77949 26.1817C4.85825 27.7794 5.10672 28.868 5.47801 29.8244C5.85589 30.8253 6.44753 31.7318 7.21167 32.4806C7.95876 33.2469 8.86575 33.8389 9.86794 34.2143C10.8243 34.5809 11.9129 34.834 13.5106 34.9128C15.1073 34.985 15.6146 35 19.6923 35C23.77 35 24.2782 34.9803 25.874 34.9128C27.4717 34.834 28.5603 34.5799 29.5166 34.2143C30.5176 33.8364 31.4241 33.2448 32.1729 32.4806C32.9402 31.7343 33.5323 30.8271 33.9066 29.8244C34.2732 28.868 34.5263 27.7794 34.6051 26.1817C34.6773 24.5849 34.6923 24.0777 34.6923 20C34.6923 15.9223 34.6726 15.4141 34.6051 13.8183C34.5263 12.2206 34.2722 11.1264 33.9066 10.1756C33.5287 9.1747 32.9371 8.26822 32.1729 7.51938C31.4266 6.75212 30.5194 6.16 29.5166 5.78572C28.5603 5.41443 27.4717 5.16596 25.874 5.0872C24.2772 5.015 23.77 5 19.6923 5ZM19.6923 7.70034C23.6969 7.70034 24.175 7.72003 25.7577 7.78754C27.2176 7.85598 28.0127 8.09976 28.5406 8.30604C29.1932 8.54693 29.7839 8.93035 30.2696 9.42837C30.7667 9.91201 31.1487 10.5013 31.3872 11.1526C31.5935 11.6805 31.8372 12.4756 31.9057 13.9355C31.9732 15.5182 31.9929 15.9973 31.9929 20.0009C31.9929 24.0046 31.9732 24.4837 31.9001 26.0664C31.8213 27.5263 31.5775 28.3214 31.3722 28.8492C31.0881 29.5534 30.7712 30.0456 30.248 30.5782C29.7606 31.0731 29.1704 31.4547 28.519 31.6958C27.9977 31.9021 27.1914 32.1459 25.7259 32.2143C24.1347 32.2818 23.6659 32.3015 19.651 32.3015C15.6362 32.3015 15.1683 32.2818 13.5753 32.2087C12.1154 32.13 11.31 31.8862 10.7821 31.6808C10.0695 31.3967 9.58103 31.0798 9.05784 30.5566C8.52996 30.0288 8.19429 29.5262 7.93551 28.8277C7.72548 28.3064 7.48545 27.5 7.40763 26.0345C7.35419 24.4621 7.32887 23.9746 7.32887 19.9784C7.32887 15.9842 7.35419 15.4957 7.40763 13.9036C7.48545 12.4381 7.72548 11.6336 7.93551 11.1105C8.19429 10.3969 8.5309 9.90936 9.05784 9.38148C9.58009 8.85923 10.0695 8.52169 10.7821 8.25728C11.31 8.05194 12.0957 7.80816 13.5612 7.73503C15.1523 7.67783 15.6212 7.65721 19.6304 7.65721L19.6923 7.70034ZM19.6923 12.3012C18.6809 12.3009 17.6794 12.4998 16.7449 12.8866C15.8105 13.2735 14.9614 13.8407 14.2463 14.5559C13.5311 15.271 12.9639 16.1201 12.5771 17.0545C12.1902 17.989 11.9913 18.9905 11.9916 20.0019C11.9913 21.0132 12.1902 22.0148 12.5771 22.9492C12.9639 23.8837 13.5311 24.7327 14.2463 25.4479C14.9614 26.163 15.8105 26.7302 16.7449 27.1171C17.6794 27.504 18.6809 27.7029 19.6923 27.7025C20.7037 27.7029 21.7052 27.504 22.6396 27.1171C23.5741 26.7302 24.4232 26.163 25.1383 25.4479C25.8534 24.7327 26.4207 23.8837 26.8075 22.9492C27.1944 22.0148 27.3933 21.0132 27.3929 20.0019C27.3933 18.9905 27.1944 17.989 26.8075 17.0545C26.4207 16.1201 25.8534 15.271 25.1383 14.5559C24.4232 13.8407 23.5741 13.2735 22.6396 12.8866C21.7052 12.4998 20.7037 12.3009 19.6923 12.3012V12.3012ZM19.6923 25.0022C16.9282 25.0022 14.692 22.766 14.692 20.0019C14.692 17.2378 16.9282 15.0016 19.6923 15.0016C22.4564 15.0016 24.6926 17.2378 24.6926 20.0019C24.6926 22.766 22.4564 25.0022 19.6923 25.0022ZM29.5035 11.9937C29.503 12.4716 29.3128 12.9297 28.9748 13.2674C28.6367 13.6051 28.1784 13.7948 27.7005 13.7948C27.4642 13.7948 27.2302 13.7483 27.0119 13.6579C26.7936 13.5675 26.5953 13.4349 26.4282 13.2679C26.2611 13.1008 26.1286 12.9024 26.0382 12.6841C25.9477 12.4658 25.9012 12.2318 25.9012 11.9956C25.9012 11.7593 25.9477 11.5253 26.0382 11.307C26.1286 11.0887 26.2611 10.8904 26.4282 10.7233C26.5953 10.5562 26.7936 10.4237 27.0119 10.3332C27.2302 10.2428 27.4642 10.1963 27.7005 10.1963C28.6915 10.1963 29.5035 11.0026 29.5035 11.9937V11.9937Z" fill="#0A0A0A"/>
</svg>
