<svg width="40" height="40" viewBox="0 0 40 40" fill="none" xmlns="http://www.w3.org/2000/svg">
<path d="M19.5 5C15.3891 5 11.4467 6.63303 8.53985 9.53985C5.63303 12.4467 4 16.3891 4 20.5C4 24.6109 5.63303 28.5533 8.53985 31.4602C11.4467 34.367 15.3891 36 19.5 36C23.6109 36 27.5533 34.367 30.4602 31.4602C33.367 28.5533 35 24.6109 35 20.5C35 16.3891 33.367 12.4467 30.4602 9.53985C27.5533 6.63303 23.6109 5 19.5 5V5ZM26.6087 27.3549C26.5426 27.4633 26.4557 27.5576 26.353 27.6324C26.2504 27.7072 26.134 27.761 26.0105 27.7907C25.887 27.8204 25.7589 27.8254 25.6335 27.8055C25.508 27.7856 25.3878 27.7411 25.2796 27.6746C21.639 25.4523 17.0588 24.9485 11.6628 26.1827C11.4128 26.2397 11.1504 26.1951 10.9333 26.0587C10.7162 25.9222 10.5622 25.7051 10.5052 25.4552C10.4481 25.2052 10.4927 24.9428 10.6292 24.7257C10.7656 24.5085 10.9827 24.3545 11.2327 24.2975C17.1382 22.949 22.2028 23.5283 26.2871 26.0258C26.5056 26.1597 26.6621 26.3748 26.7224 26.6239C26.7827 26.873 26.7418 27.1358 26.6087 27.3549V27.3549ZM28.5055 23.135C28.3376 23.408 28.0683 23.6032 27.7565 23.6777C27.4448 23.7522 27.1163 23.6998 26.8431 23.5322C22.6775 20.9727 16.3264 20.2307 11.3974 21.7264C11.0974 21.7977 10.7815 21.7519 10.5141 21.5982C10.2467 21.4446 10.048 21.1948 9.95857 20.8997C9.8691 20.6045 9.89558 20.2864 10.0326 20.0102C10.1696 19.7339 10.4069 19.5204 10.696 19.4131C16.3244 17.7061 23.3227 18.5334 28.1064 21.4726C28.3797 21.6402 28.5753 21.9094 28.6502 22.2212C28.725 22.5329 28.673 22.8616 28.5055 23.135V23.135ZM28.6683 18.7408C23.6734 15.7725 15.4312 15.4993 10.6611 16.9466C10.2932 17.0581 9.89606 17.0189 9.55705 16.8376C9.21804 16.6563 8.96494 16.3477 8.85344 15.9798C8.74193 15.6119 8.78115 15.2147 8.96246 14.8757C9.14377 14.5367 9.45233 14.2836 9.82025 14.1721C15.2937 12.5117 24.3961 12.8314 30.1485 16.2452C30.4794 16.4415 30.7188 16.7613 30.814 17.1341C30.9092 17.5069 30.8524 17.9022 30.6561 18.2331C30.4598 18.564 30.1401 18.8034 29.7673 18.8986C29.3945 18.9938 28.9992 18.937 28.6683 18.7408V18.7408Z" fill="#0A0A0A"/>
</svg>
