<svg width="40" height="40" viewBox="0 0 40 40" fill="none" xmlns="http://www.w3.org/2000/svg">
<path d="M35.4383 10.2142C34.2822 10.7265 33.0402 11.0726 31.7346 11.2291C33.0818 10.423 34.0897 9.15424 34.5702 7.65963C33.3045 8.41144 31.9192 8.94064 30.4746 9.22421C29.5031 8.18697 28.2164 7.49947 26.8142 7.26845C25.412 7.03743 23.9727 7.27581 22.7199 7.94659C21.467 8.61737 20.4707 9.68301 19.8855 10.9781C19.3004 12.2731 19.1591 13.7251 19.4838 15.1087C16.9191 14.9799 14.4102 14.3133 12.1198 13.1521C9.8294 11.991 7.80877 10.3612 6.18902 8.36854C5.63519 9.3239 5.31674 10.4316 5.31674 11.6112C5.31612 12.6732 5.57764 13.7189 6.07809 14.6556C6.57854 15.5922 7.30245 16.3909 8.18559 16.9806C7.16138 16.948 6.15977 16.6713 5.26412 16.1734V16.2565C5.26402 17.746 5.77923 19.1896 6.72234 20.3424C7.66545 21.4952 8.97836 22.2863 10.4383 22.5813C9.48818 22.8384 8.49205 22.8763 7.52515 22.692C7.93706 23.9736 8.73942 25.0943 9.81991 25.8972C10.9004 26.7002 12.2049 27.1451 13.5508 27.1698C11.2661 28.9634 8.44435 29.9363 5.53966 29.932C5.02512 29.9322 4.51102 29.9021 4 29.842C6.94843 31.7378 10.3806 32.7439 13.8859 32.74C25.7518 32.74 32.2386 22.9122 32.2386 14.3887C32.2386 14.1118 32.2316 13.8321 32.2192 13.5552C33.4809 12.6427 34.5701 11.5128 35.4356 10.2183L35.4383 10.2142V10.2142Z" fill="#0A0A0A"/>
</svg>