<svg width="40" height="40" viewBox="0 0 40 40" fill="none" xmlns="http://www.w3.org/2000/svg">
<path fill-rule="evenodd" clip-rule="evenodd" d="M30.6717 9.38838C29.2856 7.99319 27.6364 6.88691 25.8198 6.13363C24.0031 5.38035 22.055 4.99505 20.0883 5.00005C11.8417 5.00005 5.12833 11.7117 5.125 19.9617C5.125 22.5984 5.81333 25.1717 7.12167 27.4417L5 35.1934L12.9317 33.1117C15.1257 34.306 17.5837 34.9323 20.0817 34.9334H20.0883C28.3333 34.9334 35.0467 28.2217 35.05 19.9717C35.0557 18.0059 34.6716 16.0584 33.9201 14.2418C33.1686 12.4253 32.0645 10.7757 30.6717 9.38838M20.0883 32.4084H20.0833C17.8559 32.4086 15.6694 31.8093 13.7533 30.6734L13.3 30.4034L8.59333 31.6384L9.84833 27.05L9.55333 26.58C8.30798 24.5974 7.64872 22.303 7.65167 19.9617C7.655 13.105 13.2333 7.52671 20.0933 7.52671C21.7271 7.52308 23.3453 7.84352 24.8544 8.46947C26.3635 9.09542 27.7335 10.0145 28.885 11.1734C30.0427 12.3268 30.9603 13.6982 31.5848 15.2084C32.2093 16.7185 32.5283 18.3375 32.5233 19.9717C32.52 26.8284 26.9417 32.4084 20.0883 32.4084ZM26.91 23.0934C26.535 22.905 24.6983 22.0017 24.355 21.8767C24.0133 21.7517 23.765 21.69 23.515 22.0634C23.265 22.4367 22.5483 23.2784 22.33 23.5284C22.1117 23.7784 21.8933 23.8084 21.52 23.6217C21.1467 23.435 19.9417 23.04 18.5133 21.7667C17.4017 20.775 16.6517 19.5517 16.4333 19.1767C16.215 18.8017 16.41 18.6 16.5983 18.4134C16.7667 18.2467 16.9717 17.9767 17.1583 17.7584C17.345 17.54 17.4067 17.385 17.5317 17.135C17.6567 16.885 17.595 16.6667 17.5 16.48C17.4067 16.2917 16.6583 14.4517 16.3467 13.7034C16.045 12.9784 15.7367 13.075 15.5067 13.065C15.2685 13.0553 15.0301 13.0509 14.7917 13.0517C14.6021 13.0565 14.4156 13.1005 14.2438 13.1808C14.072 13.2611 13.9186 13.376 13.7933 13.5184C13.45 13.8934 12.485 14.7967 12.485 16.6367C12.485 18.4767 13.825 20.255 14.0117 20.505C14.1983 20.755 16.6483 24.53 20.3983 26.15C21.2917 26.535 21.9883 26.765 22.53 26.9384C23.425 27.2234 24.24 27.1817 24.885 27.0867C25.6033 26.98 27.0967 26.1834 27.4083 25.31C27.72 24.4367 27.72 23.6884 27.6267 23.5317C27.5333 23.375 27.2817 23.28 26.91 23.0934" fill="#0A0A0A"/>
</svg>
